<?xml version="1.0" standalone="no"?>
<!DOCTYPE svg PUBLIC "-//W3C//DTD SVG 20010904//EN"
 "http://www.w3.org/TR/2001/REC-SVG-20010904/DTD/svg10.dtd">
<svg version="1.0" xmlns="http://www.w3.org/2000/svg"
 width="700.000000pt" height="700.000000pt" viewBox="0 0 700.000000 700.000000"
 preserveAspectRatio="xMidYMid meet">
<metadata>
Created by potrace 1.14, written by Peter Selinger 2001-2017
</metadata>
<g transform="translate(0.000000,700.000000) scale(0.100000,-0.100000)"
fill="#000000" stroke="none">
<path d="M2334 6433 c1 -153 0 -285 -2 -293 -3 -13 -27 -15 -160 -15 -86 0
-184 -3 -217 -8 -127 -19 -271 -97 -354 -194 -52 -60 -116 -191 -131 -265 -12
-62 -17 -3625 -5 -3703 34 -223 198 -408 418 -473 l82 -24 2110 0 c1922 0
2116 2 2180 17 179 42 331 169 405 338 51 116 50 51 49 1982 0 1851 0 1837
-36 1945 -60 178 -242 335 -430 372 -32 6 -134 12 -228 13 -93 2 -173 3 -176
4 -3 0 -5 126 -4 279 0 152 -1 282 -3 288 -2 9 -85 12 -293 13 l-289 1 0 -293
0 -292 -1157 0 c-637 0 -1162 3 -1168 7 -6 4 -10 111 -9 291 l1 285 -292 1
-292 1 1 -277z m3791 -3079 l0 -1311 -2040 1 -2040 1 -1 1311 -2 1310 2042 0
2041 -1 0 -1311z"/>
<path d="M4306 3588 l-488 -490 -237 236 -236 236 -155 -155 -154 -155 391
-391 390 -390 647 646 c355 355 646 647 646 649 0 5 -301 301 -308 303 -4 1
-227 -219 -496 -489z"/>
<path d="M294 4371 c-2 -3 -4 -801 -4 -1775 0 -1498 3 -1781 15 -1839 44 -208
200 -377 410 -443 58 -18 128 -19 2150 -19 l2090 0 2 288 c1 215 -1 287 -10
288 -7 1 -925 2 -2042 3 l-2030 1 -1 1735 c-1 954 -2 1742 -3 1750 -1 13 -39
15 -287 15 -157 0 -288 -2 -290 -4z"/>
</g>
</svg>
